<?xml version="1.0" encoding="UTF-8" standalone="no"?>
<!DOCTYPE svg PUBLIC "-//W3C//DTD SVG 1.1//EN"
 "http://www.w3.org/Graphics/SVG/1.1/DTD/svg11.dtd">
<!-- Generated by graphviz version 2.44.1 (20200629.0846)
 -->
<!-- Pages: 1 -->
<svg width="138pt" height="283pt"
 viewBox="0.00 0.00 137.99 283.00" xmlns="http://www.w3.org/2000/svg" xmlns:xlink="http://www.w3.org/1999/xlink">
<g id="graph0" class="graph" transform="scale(1 1) rotate(0) translate(4 279)">
<polygon fill="white" stroke="transparent" points="-4,4 -4,-279 133.99,-279 133.99,4 -4,4"/>
<text text-anchor="middle" x="64.99" y="-7.8" font-family="Times New Roman,serif" font-size="14.00">Fibonacci</text>
<!-- Condicionalsi0 -->
<g id="node1" class="node">
<title>Condicionalsi0</title>
<ellipse fill="none" stroke="black" cx="64.99" cy="-185" rx="64.99" ry="18"/>
<text text-anchor="middle" x="64.99" y="-181.3" font-family="Times New Roman,serif" font-size="14.00">Condicionalsi0</text>
</g>
<!-- Bloque1 -->
<g id="node2" class="node">
<title>Bloque1</title>
<ellipse fill="none" stroke="black" cx="64.99" cy="-113" rx="40.89" ry="18"/>
<text text-anchor="middle" x="64.99" y="-109.3" font-family="Times New Roman,serif" font-size="14.00">Bloque1</text>
</g>
<!-- Condicionalsi0&#45;&gt;Bloque1 -->
<g id="edge1" class="edge">
<title>Condicionalsi0&#45;&gt;Bloque1</title>
<path fill="none" stroke="black" d="M64.99,-166.7C64.99,-158.98 64.99,-149.71 64.99,-141.11"/>
<polygon fill="black" stroke="black" points="68.49,-141.1 64.99,-131.1 61.49,-141.1 68.49,-141.1"/>
</g>
<!-- end -->
<g id="node3" class="node">
<title>end</title>
<ellipse fill="blue" stroke="blue" cx="64.99" cy="-41" rx="27" ry="18"/>
<text text-anchor="middle" x="64.99" y="-37.3" font-family="Times New Roman,serif" font-size="14.00">end</text>
</g>
<!-- Bloque1&#45;&gt;end -->
<g id="edge2" class="edge">
<title>Bloque1&#45;&gt;end</title>
<path fill="none" stroke="black" d="M64.99,-94.7C64.99,-86.98 64.99,-77.71 64.99,-69.11"/>
<polygon fill="black" stroke="black" points="68.49,-69.1 64.99,-59.1 61.49,-69.1 68.49,-69.1"/>
</g>
<!-- start -->
<g id="node4" class="node">
<title>start</title>
<ellipse fill="red" stroke="red" cx="64.99" cy="-257" rx="27" ry="18"/>
<text text-anchor="middle" x="64.99" y="-253.3" font-family="Times New Roman,serif" font-size="14.00">start</text>
</g>
<!-- start&#45;&gt;Condicionalsi0 -->
<g id="edge3" class="edge">
<title>start&#45;&gt;Condicionalsi0</title>
<path fill="none" stroke="black" d="M64.99,-238.7C64.99,-230.98 64.99,-221.71 64.99,-213.11"/>
<polygon fill="black" stroke="black" points="68.49,-213.1 64.99,-203.1 61.49,-213.1 68.49,-213.1"/>
</g>
</g>
</svg>
