<?xml version="1.0" encoding="UTF-8" standalone="no"?>
<!DOCTYPE svg PUBLIC "-//W3C//DTD SVG 1.1//EN"
 "http://www.w3.org/Graphics/SVG/1.1/DTD/svg11.dtd">
<!-- Generated by graphviz version 2.44.1 (20200629.0846)
 -->
<!-- Pages: 1 -->
<svg width="114pt" height="211pt"
 viewBox="0.00 0.00 114.00 211.00" xmlns="http://www.w3.org/2000/svg" xmlns:xlink="http://www.w3.org/1999/xlink">
<g id="graph0" class="graph" transform="scale(1 1) rotate(0) translate(4 207)">
<polygon fill="white" stroke="transparent" points="-4,4 -4,-207 110,-207 110,4 -4,4"/>
<text text-anchor="middle" x="53" y="-7.8" font-family="Times New Roman,serif" font-size="14.00">LlamaFibonacci</text>
<!-- Bloque0 -->
<g id="node1" class="node">
<title>Bloque0</title>
<ellipse fill="none" stroke="black" cx="53" cy="-113" rx="40.89" ry="18"/>
<text text-anchor="middle" x="53" y="-109.3" font-family="Times New Roman,serif" font-size="14.00">Bloque0</text>
</g>
<!-- end -->
<g id="node2" class="node">
<title>end</title>
<ellipse fill="blue" stroke="blue" cx="53" cy="-41" rx="27" ry="18"/>
<text text-anchor="middle" x="53" y="-37.3" font-family="Times New Roman,serif" font-size="14.00">end</text>
</g>
<!-- Bloque0&#45;&gt;end -->
<g id="edge1" class="edge">
<title>Bloque0&#45;&gt;end</title>
<path fill="none" stroke="black" d="M53,-94.7C53,-86.98 53,-77.71 53,-69.11"/>
<polygon fill="black" stroke="black" points="56.5,-69.1 53,-59.1 49.5,-69.1 56.5,-69.1"/>
</g>
<!-- start -->
<g id="node3" class="node">
<title>start</title>
<ellipse fill="red" stroke="red" cx="53" cy="-185" rx="27" ry="18"/>
<text text-anchor="middle" x="53" y="-181.3" font-family="Times New Roman,serif" font-size="14.00">start</text>
</g>
<!-- start&#45;&gt;Bloque0 -->
<g id="edge2" class="edge">
<title>start&#45;&gt;Bloque0</title>
<path fill="none" stroke="black" d="M53,-166.7C53,-158.98 53,-149.71 53,-141.11"/>
<polygon fill="black" stroke="black" points="56.5,-141.1 53,-131.1 49.5,-141.1 56.5,-141.1"/>
</g>
</g>
</svg>
