<?xml version="1.0" encoding="UTF-8" standalone="no"?>
<!DOCTYPE svg PUBLIC "-//W3C//DTD SVG 1.1//EN"
 "http://www.w3.org/Graphics/SVG/1.1/DTD/svg11.dtd">
<!-- Generated by graphviz version 2.44.1 (20200629.0846)
 -->
<!-- Pages: 1 -->
<svg width="90pt" height="211pt"
 viewBox="0.00 0.00 89.89 211.00" xmlns="http://www.w3.org/2000/svg" xmlns:xlink="http://www.w3.org/1999/xlink">
<g id="graph0" class="graph" transform="scale(1 1) rotate(0) translate(4 207)">
<polygon fill="white" stroke="transparent" points="-4,4 -4,-207 85.89,-207 85.89,4 -4,4"/>
<text text-anchor="middle" x="40.95" y="-7.8" font-family="Times New Roman,serif" font-size="14.00">Llamada</text>
<!-- Bloque0 -->
<g id="node1" class="node">
<title>Bloque0</title>
<ellipse fill="none" stroke="black" cx="40.95" cy="-113" rx="40.89" ry="18"/>
<text text-anchor="middle" x="40.95" y="-109.3" font-family="Times New Roman,serif" font-size="14.00">Bloque0</text>
</g>
<!-- end -->
<g id="node2" class="node">
<title>end</title>
<ellipse fill="blue" stroke="blue" cx="40.95" cy="-41" rx="27" ry="18"/>
<text text-anchor="middle" x="40.95" y="-37.3" font-family="Times New Roman,serif" font-size="14.00">end</text>
</g>
<!-- Bloque0&#45;&gt;end -->
<g id="edge1" class="edge">
<title>Bloque0&#45;&gt;end</title>
<path fill="none" stroke="black" d="M40.95,-94.7C40.95,-86.98 40.95,-77.71 40.95,-69.11"/>
<polygon fill="black" stroke="black" points="44.45,-69.1 40.95,-59.1 37.45,-69.1 44.45,-69.1"/>
</g>
<!-- start -->
<g id="node3" class="node">
<title>start</title>
<ellipse fill="red" stroke="red" cx="40.95" cy="-185" rx="27" ry="18"/>
<text text-anchor="middle" x="40.95" y="-181.3" font-family="Times New Roman,serif" font-size="14.00">start</text>
</g>
<!-- start&#45;&gt;Bloque0 -->
<g id="edge2" class="edge">
<title>start&#45;&gt;Bloque0</title>
<path fill="none" stroke="black" d="M40.95,-166.7C40.95,-158.98 40.95,-149.71 40.95,-141.11"/>
<polygon fill="black" stroke="black" points="44.45,-141.1 40.95,-131.1 37.45,-141.1 44.45,-141.1"/>
</g>
</g>
</svg>
