<?xml version="1.0" encoding="UTF-8" standalone="no"?>
<!DOCTYPE svg PUBLIC "-//W3C//DTD SVG 1.1//EN"
 "http://www.w3.org/Graphics/SVG/1.1/DTD/svg11.dtd">
<!-- Generated by graphviz version 2.44.1 (20200629.0846)
 -->
<!-- Pages: 1 -->
<svg width="124pt" height="211pt"
 viewBox="0.00 0.00 124.00 211.00" xmlns="http://www.w3.org/2000/svg" xmlns:xlink="http://www.w3.org/1999/xlink">
<g id="graph0" class="graph" transform="scale(1 1) rotate(0) translate(4 207)">
<polygon fill="white" stroke="transparent" points="-4,4 -4,-207 120,-207 120,4 -4,4"/>
<text text-anchor="middle" x="58" y="-7.8" font-family="Times New Roman,serif" font-size="14.00">MostrarFibonacci</text>
<!-- Bloque2 -->
<g id="node1" class="node">
<title>Bloque2</title>
<ellipse fill="none" stroke="black" cx="58" cy="-113" rx="40.89" ry="18"/>
<text text-anchor="middle" x="58" y="-109.3" font-family="Times New Roman,serif" font-size="14.00">Bloque2</text>
</g>
<!-- end -->
<g id="node2" class="node">
<title>end</title>
<ellipse fill="blue" stroke="blue" cx="58" cy="-41" rx="27" ry="18"/>
<text text-anchor="middle" x="58" y="-37.3" font-family="Times New Roman,serif" font-size="14.00">end</text>
</g>
<!-- Bloque2&#45;&gt;end -->
<g id="edge1" class="edge">
<title>Bloque2&#45;&gt;end</title>
<path fill="none" stroke="black" d="M58,-94.7C58,-86.98 58,-77.71 58,-69.11"/>
<polygon fill="black" stroke="black" points="61.5,-69.1 58,-59.1 54.5,-69.1 61.5,-69.1"/>
</g>
<!-- start -->
<g id="node3" class="node">
<title>start</title>
<ellipse fill="red" stroke="red" cx="58" cy="-185" rx="27" ry="18"/>
<text text-anchor="middle" x="58" y="-181.3" font-family="Times New Roman,serif" font-size="14.00">start</text>
</g>
<!-- start&#45;&gt;Bloque2 -->
<g id="edge2" class="edge">
<title>start&#45;&gt;Bloque2</title>
<path fill="none" stroke="black" d="M58,-166.7C58,-158.98 58,-149.71 58,-141.11"/>
<polygon fill="black" stroke="black" points="61.5,-141.1 58,-131.1 54.5,-141.1 61.5,-141.1"/>
</g>
</g>
</svg>
