<?xml version="1.0" encoding="UTF-8" standalone="no"?>
<!DOCTYPE svg PUBLIC "-//W3C//DTD SVG 1.1//EN"
 "http://www.w3.org/Graphics/SVG/1.1/DTD/svg11.dtd">
<!-- Generated by graphviz version 2.44.1 (20200629.0846)
 -->
<!-- Pages: 1 -->
<svg width="348pt" height="750pt"
 viewBox="0.00 0.00 348.00 750.00" xmlns="http://www.w3.org/2000/svg" xmlns:xlink="http://www.w3.org/1999/xlink">
<g id="graph0" class="graph" transform="scale(1 1) rotate(0) translate(4 746)">
<polygon fill="white" stroke="transparent" points="-4,4 -4,-746 344,-746 344,4 -4,4"/>
<g id="clust1" class="cluster">
<title>cluster_0</title>
<polygon fill="none" stroke="black" points="234,-8 234,-227 332,-227 332,-8 234,-8"/>
<text text-anchor="middle" x="283" y="-211.8" font-family="Times New Roman,serif" font-size="14.00">Llamada</text>
</g>
<g id="clust2" class="cluster">
<title>cluster_1</title>
<polygon fill="none" stroke="black" points="8,-80 8,-734 226,-734 226,-80 8,-80"/>
<text text-anchor="middle" x="117" y="-718.8" font-family="Times New Roman,serif" font-size="14.00">test3</text>
</g>
<!-- Bloque0 -->
<g id="node1" class="node">
<title>Bloque0</title>
<ellipse fill="none" stroke="black" cx="283" cy="-106" rx="40.89" ry="18"/>
<text text-anchor="middle" x="283" y="-102.3" font-family="Times New Roman,serif" font-size="14.00">Bloque0</text>
</g>
<!-- end -->
<g id="node2" class="node">
<title>end</title>
<ellipse fill="blue" stroke="blue" cx="276" cy="-34" rx="27" ry="18"/>
<text text-anchor="middle" x="276" y="-30.3" font-family="Times New Roman,serif" font-size="14.00">end</text>
</g>
<!-- Bloque0&#45;&gt;end -->
<g id="edge1" class="edge">
<title>Bloque0&#45;&gt;end</title>
<path fill="none" stroke="black" d="M281.27,-87.7C280.5,-79.98 279.57,-70.71 278.71,-62.11"/>
<polygon fill="black" stroke="black" points="282.19,-61.71 277.71,-52.1 275.22,-62.4 282.19,-61.71"/>
</g>
<!-- start -->
<g id="node3" class="node">
<title>start</title>
<ellipse fill="red" stroke="red" cx="276" cy="-178" rx="27" ry="18"/>
<text text-anchor="middle" x="276" y="-174.3" font-family="Times New Roman,serif" font-size="14.00">start</text>
</g>
<!-- start&#45;&gt;Bloque0 -->
<g id="edge2" class="edge">
<title>start&#45;&gt;Bloque0</title>
<path fill="none" stroke="black" d="M277.73,-159.7C278.5,-151.98 279.43,-142.71 280.29,-134.11"/>
<polygon fill="black" stroke="black" points="283.78,-134.4 281.29,-124.1 276.81,-133.71 283.78,-134.4"/>
</g>
<!-- Bloque1 -->
<g id="node4" class="node">
<title>Bloque1</title>
<ellipse fill="none" stroke="black" cx="177" cy="-685" rx="40.89" ry="18"/>
<text text-anchor="middle" x="177" y="-681.3" font-family="Times New Roman,serif" font-size="14.00">Bloque1</text>
</g>
<!-- start&#45;&gt;Bloque1 -->
<g id="edge12" class="edge">
<title>start&#45;&gt;Bloque1</title>
<path fill="none" stroke="black" d="M272.34,-195.87C266.82,-222.82 257,-277.28 257,-324 257,-542 257,-542 257,-542 257,-588.67 223.79,-634.15 200.17,-660.6"/>
<polygon fill="black" stroke="black" points="197.39,-658.45 193.19,-668.17 202.54,-663.19 197.39,-658.45"/>
</g>
<!-- Para0 -->
<g id="node5" class="node">
<title>Para0</title>
<ellipse fill="none" stroke="black" cx="177" cy="-613" rx="31.4" ry="18"/>
<text text-anchor="middle" x="177" y="-609.3" font-family="Times New Roman,serif" font-size="14.00">Para0</text>
</g>
<!-- Bloque1&#45;&gt;Para0 -->
<g id="edge3" class="edge">
<title>Bloque1&#45;&gt;Para0</title>
<path fill="none" stroke="black" d="M177,-666.7C177,-658.98 177,-649.71 177,-641.11"/>
<polygon fill="black" stroke="black" points="180.5,-641.1 177,-631.1 173.5,-641.1 180.5,-641.1"/>
</g>
<!-- Bloque2 -->
<g id="node6" class="node">
<title>Bloque2</title>
<ellipse fill="none" stroke="black" cx="155" cy="-541" rx="40.89" ry="18"/>
<text text-anchor="middle" x="155" y="-537.3" font-family="Times New Roman,serif" font-size="14.00">Bloque2</text>
</g>
<!-- Para0&#45;&gt;Bloque2 -->
<g id="edge4" class="edge">
<title>Para0&#45;&gt;Bloque2</title>
<path fill="none" stroke="black" d="M171.67,-595.05C169.22,-587.26 166.26,-577.82 163.51,-569.08"/>
<polygon fill="black" stroke="black" points="166.77,-567.77 160.43,-559.28 160.09,-569.86 166.77,-567.77"/>
</g>
<!-- Mientras1 -->
<g id="node7" class="node">
<title>Mientras1</title>
<ellipse fill="none" stroke="black" cx="143" cy="-469" rx="46.29" ry="18"/>
<text text-anchor="middle" x="143" y="-465.3" font-family="Times New Roman,serif" font-size="14.00">Mientras1</text>
</g>
<!-- Bloque2&#45;&gt;Mientras1 -->
<g id="edge5" class="edge">
<title>Bloque2&#45;&gt;Mientras1</title>
<path fill="none" stroke="black" d="M152.03,-522.7C150.71,-514.98 149.12,-505.71 147.65,-497.11"/>
<polygon fill="black" stroke="black" points="151.07,-496.37 145.93,-487.1 144.17,-497.55 151.07,-496.37"/>
</g>
<!-- Bloque3 -->
<g id="node8" class="node">
<title>Bloque3</title>
<ellipse fill="none" stroke="black" cx="143" cy="-397" rx="40.89" ry="18"/>
<text text-anchor="middle" x="143" y="-393.3" font-family="Times New Roman,serif" font-size="14.00">Bloque3</text>
</g>
<!-- Mientras1&#45;&gt;Bloque3 -->
<g id="edge6" class="edge">
<title>Mientras1&#45;&gt;Bloque3</title>
<path fill="none" stroke="black" d="M137.12,-451.05C136.3,-443.35 136.06,-434.03 136.39,-425.36"/>
<polygon fill="black" stroke="black" points="139.89,-425.49 137.09,-415.28 132.91,-425.01 139.89,-425.49"/>
</g>
<!-- Bloque3&#45;&gt;Mientras1 -->
<g id="edge13" class="edge">
<title>Bloque3&#45;&gt;Mientras1</title>
<path fill="none" stroke="black" d="M148.91,-415.28C149.71,-423.03 149.94,-432.36 149.59,-441.01"/>
<polygon fill="black" stroke="black" points="146.09,-440.83 148.88,-451.05 153.08,-441.33 146.09,-440.83"/>
</g>
<!-- Condicionalsi2 -->
<g id="node9" class="node">
<title>Condicionalsi2</title>
<ellipse fill="none" stroke="black" cx="133" cy="-325" rx="64.99" ry="18"/>
<text text-anchor="middle" x="133" y="-321.3" font-family="Times New Roman,serif" font-size="14.00">Condicionalsi2</text>
</g>
<!-- Bloque3&#45;&gt;Condicionalsi2 -->
<g id="edge7" class="edge">
<title>Bloque3&#45;&gt;Condicionalsi2</title>
<path fill="none" stroke="black" d="M140.53,-378.7C139.43,-370.98 138.1,-361.71 136.87,-353.11"/>
<polygon fill="black" stroke="black" points="140.32,-352.51 135.44,-343.1 133.39,-353.5 140.32,-352.51"/>
</g>
<!-- Bloque5 -->
<g id="node10" class="node">
<title>Bloque5</title>
<ellipse fill="none" stroke="black" cx="57" cy="-253" rx="40.89" ry="18"/>
<text text-anchor="middle" x="57" y="-249.3" font-family="Times New Roman,serif" font-size="14.00">Bloque5</text>
</g>
<!-- Condicionalsi2&#45;&gt;Bloque5 -->
<g id="edge8" class="edge">
<title>Condicionalsi2&#45;&gt;Bloque5</title>
<path fill="none" stroke="black" d="M114.99,-307.41C104.96,-298.17 92.33,-286.54 81.42,-276.49"/>
<polygon fill="black" stroke="black" points="83.57,-273.71 73.84,-269.51 78.82,-278.86 83.57,-273.71"/>
</g>
<!-- Bloque4 -->
<g id="node13" class="node">
<title>Bloque4</title>
<ellipse fill="none" stroke="black" cx="157" cy="-253" rx="40.89" ry="18"/>
<text text-anchor="middle" x="157" y="-249.3" font-family="Times New Roman,serif" font-size="14.00">Bloque4</text>
</g>
<!-- Condicionalsi2&#45;&gt;Bloque4 -->
<g id="edge14" class="edge">
<title>Condicionalsi2&#45;&gt;Bloque4</title>
<path fill="none" stroke="black" d="M138.81,-307.05C141.51,-299.18 144.79,-289.62 147.81,-280.79"/>
<polygon fill="black" stroke="black" points="151.14,-281.87 151.08,-271.28 144.52,-279.6 151.14,-281.87"/>
</g>
<!-- FinPara0 -->
<g id="node11" class="node">
<title>FinPara0</title>
<ellipse fill="none" stroke="black" cx="162" cy="-178" rx="42.79" ry="18"/>
<text text-anchor="middle" x="162" y="-174.3" font-family="Times New Roman,serif" font-size="14.00">FinPara0</text>
</g>
<!-- Bloque5&#45;&gt;FinPara0 -->
<g id="edge9" class="edge">
<title>Bloque5&#45;&gt;FinPara0</title>
<path fill="none" stroke="black" d="M78,-237.4C93.49,-226.63 114.79,-211.82 132.07,-199.81"/>
<polygon fill="black" stroke="black" points="134.47,-202.4 140.68,-193.82 130.47,-196.66 134.47,-202.4"/>
</g>
<!-- FinPara0&#45;&gt;Para0 -->
<g id="edge16" class="edge">
<title>FinPara0&#45;&gt;Para0</title>
<path fill="none" stroke="black" d="M178.99,-194.99C188.91,-205.39 200.67,-219.8 207,-235 222.3,-271.75 217,-284.2 217,-324 217,-470 217,-470 217,-470 217,-509.91 217.18,-520.99 205,-559 201.92,-568.61 197.16,-578.54 192.43,-587.17"/>
<polygon fill="black" stroke="black" points="189.33,-585.53 187.39,-595.95 195.41,-589.02 189.33,-585.53"/>
</g>
<!-- Bloque6 -->
<g id="node12" class="node">
<title>Bloque6</title>
<ellipse fill="none" stroke="black" cx="172" cy="-106" rx="40.89" ry="18"/>
<text text-anchor="middle" x="172" y="-102.3" font-family="Times New Roman,serif" font-size="14.00">Bloque6</text>
</g>
<!-- FinPara0&#45;&gt;Bloque6 -->
<g id="edge10" class="edge">
<title>FinPara0&#45;&gt;Bloque6</title>
<path fill="none" stroke="black" d="M164.47,-159.7C165.57,-151.98 166.9,-142.71 168.13,-134.11"/>
<polygon fill="black" stroke="black" points="171.61,-134.5 169.56,-124.1 164.68,-133.51 171.61,-134.5"/>
</g>
<!-- Bloque6&#45;&gt;end -->
<g id="edge11" class="edge">
<title>Bloque6&#45;&gt;end</title>
<path fill="none" stroke="black" d="M193.55,-90.5C209.66,-79.65 231.79,-64.75 249.07,-53.12"/>
<polygon fill="black" stroke="black" points="251.27,-55.87 257.61,-47.38 247.36,-50.06 251.27,-55.87"/>
</g>
<!-- Bloque4&#45;&gt;FinPara0 -->
<g id="edge15" class="edge">
<title>Bloque4&#45;&gt;FinPara0</title>
<path fill="none" stroke="black" d="M158.18,-234.7C158.76,-226.25 159.47,-215.87 160.13,-206.37"/>
<polygon fill="black" stroke="black" points="163.63,-206.39 160.82,-196.18 156.65,-205.91 163.63,-206.39"/>
</g>
</g>
</svg>
